<svg xmlns="http://www.w3.org/2000/svg" version="1.1" xmlns:xlink="http://www.w3.org/1999/xlink" xmlns:svgjs="http://svgjs.dev/svgjs" width="1440" height="560" preserveAspectRatio="none" viewBox="0 0 1440 560"><g mask="url(&quot;#SvgjsMask1000&quot;)" fill="none"><rect width="1440" height="560" x="0" y="0" fill="#0e2a47"></rect><path d="M0,468.516C86.147,472.856,136.496,371.824,207.257,322.498C274.655,275.516,357.591,251.774,406.076,185.449C460.611,110.849,510.091,19.998,495.042,-71.176C480.04,-162.061,403.451,-231.106,328.483,-284.632C263.418,-331.088,181.649,-336.282,103.074,-351.037C32.432,-364.303,-36.717,-378.304,-107.622,-366.526C-185.613,-353.571,-273.133,-341.248,-323.371,-280.202C-373.427,-219.377,-353.119,-130.337,-365.953,-52.616C-379.124,27.146,-434.997,109.806,-399.789,182.578C-364.547,255.421,-260.074,255.194,-194.256,302.269C-123.501,352.874,-86.879,464.139,0,468.516" fill="#091b2e"></path><path d="M1440 1073.467C1550.726 1072.0410000000002 1663.924 1110.658 1765.399 1066.33 1874.124 1018.835 1971.792 933.069 2014.654 822.4359999999999 2056.76 713.754 2025.854 592.215 1992.33 480.587 1962.386 380.879 1902.564 296.929 1833.452 219.072 1765.0720000000001 142.04000000000002 1694.954 56.865999999999985 1594.809 32.76800000000003 1496.158 9.029999999999973 1400.898 67.029 1302.371 91.27800000000002 1198.473 116.84899999999999 1085.347 114.03500000000003 1000.38 179.067 906.411 250.98899999999998 831.215 353.06600000000003 808.579 469.21500000000003 785.486 587.709 822.262 709.4639999999999 875.938 817.598 928.457 923.402 1001.5989999999999 1025.983 1109.171 1074.78 1211.675 1121.278 1327.452 1074.9160000000002 1440 1073.467" fill="#133960"></path></g><defs><mask id="SvgjsMask1000"><rect width="1440" height="560" fill="#ffffff"></rect></mask></defs></svg>